<svg width="575" height="561" viewBox="0 0 575 561" fill="none" xmlns="http://www.w3.org/2000/svg">
<g opacity="0.06">
<path d="M276.394 560.528C437.327 560.528 567.788 547.629 567.788 531.718C567.788 515.806 437.327 502.908 276.394 502.908C115.462 502.908 -15 515.806 -15 531.718C-15 547.629 115.462 560.528 276.394 560.528Z" fill="black"/>
</g>
<path d="M113.046 488.923C116.486 492.362 120.216 495.641 124.27 498.741C144.521 514.293 172.523 525.436 209.715 529.166C399.903 548.206 462.755 458.982 478.113 321.715C484.96 260.542 468.94 220.169 449.077 194.218C446.993 191.505 444.878 188.953 442.746 186.547C441.535 185.19 440.308 183.866 439.032 182.574C413.387 156.38 376.357 144.043 339.973 150.034C311.373 154.733 285.389 170.01 264.315 200.548C230.595 249.367 262.49 291.338 166.144 294.148C92.3915 296.296 45.656 421.694 113.062 488.939L113.046 488.923Z" fill="#FBB416"/>
<path d="M404.214 192.506C404.214 192.506 426.71 240.63 400.742 328.966C374.774 417.301 340.377 410.341 318.156 410.341C279.333 410.341 200.719 373.78 185.362 344.97C170.004 316.16 198.991 314.448 253.268 310.185C307.562 305.921 348.064 173.45 404.214 192.506Z" fill="#F8A81B"/>
<path d="M355.444 447.403C355.864 447.403 356.3 447.242 356.623 446.903C357.237 446.257 357.221 445.239 356.559 444.61C337.147 426.151 318.608 415.283 306.464 409.405C293.27 403.026 284.76 401.039 284.404 400.959C283.532 400.765 282.66 401.298 282.466 402.17C282.273 403.042 282.806 403.914 283.678 404.108C284.065 404.205 317.865 412.279 354.314 446.951C354.621 447.242 355.024 447.403 355.428 447.403H355.444Z" fill="#F8A81B"/>
<path d="M349.033 425.78C349.55 425.78 350.067 425.537 350.374 425.069C350.874 424.326 350.68 423.325 349.938 422.824C349.179 422.308 331.108 410.325 303.138 407.273C302.249 407.176 301.458 407.822 301.361 408.71C301.264 409.598 301.91 410.39 302.798 410.487C329.977 413.458 347.967 425.376 348.145 425.505C348.42 425.699 348.743 425.78 349.049 425.78H349.033Z" fill="#F8A81B"/>
<path d="M407.686 292.13C408.494 292.13 409.188 291.532 409.285 290.709C411.627 271.992 419.685 257.684 426.015 248.979C432.911 239.516 439.338 234.429 439.403 234.381C440.097 233.832 440.227 232.814 439.678 232.104C439.128 231.393 438.111 231.28 437.401 231.829C437.126 232.039 430.618 237.191 423.464 246.977C416.875 256.004 408.51 270.845 406.055 290.305C405.942 291.193 406.572 292.001 407.46 292.114C407.525 292.114 407.589 292.114 407.67 292.114L407.686 292.13Z" fill="#F8A81B"/>
<path d="M113.046 488.922C116.486 492.362 120.216 495.641 124.27 498.741C147.67 512.791 176.237 522.044 207.696 525.662C217.45 526.792 227.301 527.341 237.152 527.341C264.314 527.341 291.542 523.11 317.203 514.793C383.963 493.17 432.136 446.903 452.839 384.535C464.192 350.331 469.763 317.08 469.408 285.686C469.133 260.542 465.048 236.528 457.312 214.307C454.728 206.895 451.918 200.209 449.076 194.218C446.993 191.505 444.877 188.953 442.746 186.547C441.535 185.19 440.307 183.866 439.031 182.574C444.102 191.262 449.528 202.292 454.163 215.615C466.097 249.964 474.996 306.971 449.609 383.453C429.261 444.771 381.864 490.263 316.169 511.547C246.373 534.156 165.643 524.983 115.291 488.745C114.596 488.244 113.66 488.341 113.078 488.939L113.046 488.922Z" fill="#F8A81B"/>
<path d="M391.941 136.921C391.941 136.921 418.199 110.081 379.958 91.1706C341.701 72.26 296.645 101.151 289.265 122.225C281.869 143.3 391.957 136.921 391.957 136.921H391.941Z" fill="#8C2703"/>
<path d="M346.255 118.511C346.481 118.511 346.723 118.43 346.917 118.269C357.349 109.338 374.839 110.162 375.016 110.162H375.065C375.598 110.162 376.05 109.742 376.066 109.209C376.098 108.644 375.662 108.175 375.113 108.143C374.37 108.095 356.639 107.271 345.593 116.734C345.173 117.09 345.124 117.736 345.479 118.156C345.673 118.382 345.964 118.511 346.255 118.511Z" fill="#180900"/>
<path d="M371.899 119.787C372.255 119.787 372.61 119.593 372.788 119.254C373.046 118.753 372.868 118.155 372.368 117.881C371.851 117.606 359.755 111.244 351.18 113.246C350.631 113.375 350.292 113.908 350.421 114.457C350.55 115.006 351.083 115.346 351.632 115.216C359.481 113.391 371.302 119.609 371.415 119.673C371.56 119.754 371.722 119.787 371.883 119.787H371.899Z" fill="#180900"/>
<path d="M107.281 472.79L93.8126 497.611C93.8126 497.611 77.2598 501.503 57.5579 503.021C27.6336 505.314 18.7678 500.598 16.6522 507.284C15.005 512.5 37.7591 524.273 48.2883 526.13C58.8175 527.987 81.8138 537.418 96.7518 539.082C111.674 540.729 118.262 521.883 121.654 515.181C125.029 508.463 135.671 485.741 135.671 485.741L107.297 472.79H107.281Z" fill="#F79A86"/>
<path d="M28.3924 513.841C28.3278 515.714 28.6669 517.49 29.652 518.928C29.8135 519.154 29.975 519.364 30.1688 519.573C35.4657 525.419 56.6856 528.262 56.6856 528.262C54.99 526.631 54.1825 524.337 53.9403 521.77C53.2782 515.019 56.4918 506.364 57.8806 502.988C58.2682 502.068 58.5104 501.551 58.5104 501.551C54.8446 500.695 51.3564 500.211 48.2073 499.985C45.1067 499.759 42.3291 499.759 40.0359 499.855C35.7079 500.049 33.0595 500.582 33.0595 500.582C33.0595 500.582 32.3166 501.777 31.4284 503.618C30.1365 506.267 28.5377 510.239 28.4085 513.841H28.3924Z" fill="#8C2703"/>
<path d="M37.4199 509.739L44.7678 510.498C44.7678 510.498 45.7367 506.913 46.8348 503.618C47.287 502.278 47.7715 500.97 48.2075 500.001C45.1069 499.775 42.3293 499.775 40.0361 499.872C39.6001 500.841 39.0833 502.213 38.6311 503.731C38.0497 505.653 37.5491 507.817 37.4361 509.739H37.4199Z" fill="#180900"/>
<path d="M19.2521 510.95C19.2521 510.95 87.7889 532.654 97.01 534.253C106.215 535.868 111.237 534.059 111.237 534.059C111.237 534.059 110.947 537.822 110.172 541.358C109.267 545.525 104.939 547.98 100.87 546.72C82.5404 541.052 21.9329 522.125 17.7987 518.766C12.9217 514.809 13.9875 510.594 19.2521 510.95Z" fill="#8C2703"/>
<path d="M170.44 467.089L171.328 489.391C171.328 489.391 159.087 501.212 142.938 512.581C118.392 529.86 108.363 530.345 109.962 537.16C111.205 542.473 136.802 540.971 146.782 537.176C156.778 533.397 181.373 529.731 195.051 523.53C208.73 517.312 204.741 497.756 204.224 490.263C203.691 482.769 202.577 465.877 202.577 465.877L170.44 467.089Z" fill="#F79A86"/>
<path d="M123.398 536.788C124.302 538.435 125.497 539.792 127.096 540.518C127.338 540.632 127.597 540.728 127.871 540.809C135.413 543.135 155.099 534.721 155.099 534.721C152.822 534.188 150.948 532.638 149.414 530.555C145.393 525.096 143.73 516.02 143.213 512.403C143.068 511.418 143.019 510.836 143.019 510.836C139.418 511.983 136.188 513.356 133.362 514.761C130.584 516.149 128.194 517.571 126.273 518.83C122.655 521.204 120.653 523.013 120.653 523.013C120.653 523.013 120.62 524.418 120.798 526.453C121.04 529.392 121.702 533.623 123.43 536.788H123.398Z" fill="#8C2703"/>
<path d="M129.05 528.649L135.752 525.548C135.752 525.548 134.751 521.963 134.008 518.572C133.701 517.183 133.459 515.827 133.33 514.761C130.552 516.15 128.162 517.571 126.24 518.83C126.369 519.88 126.612 521.333 126.999 522.868C127.484 524.822 128.162 526.937 129.05 528.649Z" fill="#180900"/>
<path d="M114.048 538.985C114.048 538.985 184.054 522.577 192.791 519.25C201.528 515.924 204.919 511.806 204.919 511.806C204.919 511.806 206.598 515.197 207.745 518.621C209.085 522.658 206.631 526.986 202.496 527.987C183.844 532.493 122.074 547.221 116.809 546.445C110.592 545.541 109.349 541.375 114.064 538.968L114.048 538.985Z" fill="#8C2703"/>
<path d="M146.62 289.933C164.384 276.271 228.189 281.891 278.17 288.964C279.592 311.605 272.615 292.808 276.83 315.077C214.43 318.275 196.892 323.2 196.892 323.2C196.892 323.2 206.226 373.989 205.774 395.225C205.322 416.461 212.847 477.909 212.847 477.909L167.856 486.387C167.856 486.387 121.185 309.49 146.62 289.933Z" fill="white"/>
<path d="M165.579 476.504C165.773 476.568 165.983 476.585 166.193 476.536L210.619 467.46C211.281 467.331 211.701 466.685 211.572 466.023C211.443 465.361 210.797 464.941 210.135 465.07L165.709 474.146C165.046 474.275 164.627 474.921 164.756 475.583C164.853 476.019 165.159 476.358 165.563 476.488L165.579 476.504Z" fill="#D8D8D8"/>
<path d="M202.076 467.864C202.27 467.929 202.496 467.945 202.706 467.897C203.368 467.751 203.772 467.105 203.643 466.459C203.594 466.233 198.846 443.786 198.572 407.499C198.297 370.954 187.09 316.515 186.977 315.982C186.848 315.32 186.202 314.9 185.54 315.045C184.877 315.175 184.458 315.821 184.603 316.483C184.716 317.032 195.875 371.228 196.133 407.531C196.408 444.077 201.204 466.75 201.253 466.976C201.35 467.412 201.656 467.735 202.06 467.864H202.076Z" fill="#D8D8D8"/>
<path d="M200.347 85.1452C202.646 84.3778 204.118 80.4693 206.239 78.0702C209.023 74.915 212.219 69.3402 213.195 65.7003C214.663 60.2654 218.1 43.9972 215.59 40.0383C213.067 36.0875 209.026 49.8886 208.131 52.6989C207.236 55.5092 205.595 57.0909 205.595 57.0909C205.595 57.0909 212.449 24.7148 210.097 21.8028C207.744 18.8908 202.012 36.9319 200.615 41.393C200.615 41.393 204.415 16.7103 202.35 15.3293C198.197 12.5616 193.179 39.8497 193.179 39.8497C193.179 39.8497 195.323 18.9201 191.879 18.671C188.216 18.3989 185.988 40.8312 185.988 40.8312C185.988 40.8312 185.396 26.9826 182.531 25.4109C179.657 23.8252 178.659 53.0064 179.038 57.5056C179.417 62.0048 179.463 74.2293 180.957 79.9495C181.971 83.8389 193.097 87.5411 200.353 85.1231L200.347 85.1452Z" fill="#F79A86"/>
<path d="M182.725 48.291C182.632 47.8407 182.873 47.3849 183.319 47.2207C193.744 43.4766 203.324 48.7982 203.722 49.0348C204.164 49.2832 204.329 49.8594 204.08 50.3011C203.832 50.7429 203.256 50.9077 202.814 50.6593C202.723 50.5996 193.557 45.5426 183.946 48.9846C183.464 49.151 182.928 48.901 182.761 48.419C182.745 48.3911 182.735 48.341 182.733 48.305L182.725 48.291Z" fill="#F3796B"/>
<path d="M188.064 71.0725C187.984 70.7083 188.121 70.3311 188.44 70.1093C197.562 63.8171 195.958 55.2892 195.938 55.1891C195.835 54.6888 196.168 54.1986 196.668 54.0962C197.168 53.9938 197.65 54.3122 197.767 54.8044C197.857 55.2186 199.631 64.6552 189.523 71.6288C189.1 71.9292 188.528 71.8115 188.228 71.3882C188.163 71.2763 188.107 71.1784 188.078 71.0644L188.064 71.0725Z" fill="#F3796B"/>
<path d="M286.61 124.42L286.68 124.38L286.672 124.366L286.001 124.753L285.052 125.338C284.381 125.726 283.695 126.121 282.996 126.525C281.59 127.319 280.133 128.122 278.644 128.87C275.66 130.388 272.616 131.865 269.497 133.181C267.938 133.839 266.378 134.497 264.794 135.113C263.211 135.729 261.625 136.309 260.045 136.867C258.451 137.433 256.839 137.935 255.227 138.437C253.614 138.939 252 139.405 250.383 139.835C237.417 143.312 224.133 144.753 211.061 143.815C210.247 143.763 209.426 143.697 208.61 143.608C207.789 143.542 206.987 143.445 206.163 143.343L205.544 143.271C205.798 143.292 206.063 143.363 206.356 143.418C206.913 143.544 207.531 143.709 208.123 143.927C208.723 144.158 209.303 144.42 209.835 144.728C210.359 145.022 210.827 145.349 211.229 145.658C212.033 146.275 212.539 146.86 212.821 147.219C213.111 147.592 213.202 147.782 213.196 147.804C213.184 147.848 212.875 147.281 212.591 146.401C212.292 145.529 211.991 144.36 211.71 143.067C211.444 141.767 211.192 140.328 210.998 138.798C210.584 135.755 210.355 132.419 210.186 128.993C209.903 122.107 210.016 114.844 210.322 107.525C210.464 103.863 210.676 100.16 210.918 96.4776C211.024 94.6263 211.152 92.7809 211.302 90.9414L211.705 85.5994L175.961 78.5636L175.568 80.2078L175.218 81.7337L174.546 84.7694C174.125 86.7843 173.739 88.7971 173.361 90.8239C172.62 94.8694 171.973 98.9165 171.403 103.031C170.29 111.245 169.509 119.583 169.37 128.353C169.294 132.742 169.412 137.243 169.806 141.994C170.02 144.369 170.32 146.825 170.734 149.383C171.17 151.947 171.729 154.627 172.597 157.519C173.465 160.412 174.601 163.542 176.505 167.067C177.456 168.811 178.647 170.679 180.165 172.599C181.676 174.505 183.606 176.524 185.988 178.356C187.172 179.276 188.498 180.151 189.883 180.936C191.283 181.713 192.772 182.42 194.297 182.994C195.814 183.554 197.391 184.024 198.928 184.329C199.698 184.5 200.464 184.599 201.202 184.714L202.061 184.814C203.206 184.955 204.364 185.088 205.514 185.208C206.665 185.327 207.821 185.424 208.977 185.521C211.281 185.701 213.589 185.823 215.909 185.9C218.213 185.95 220.523 185.978 222.82 185.92C225.125 185.875 227.412 185.767 229.697 185.623C231.988 185.456 234.263 185.262 236.525 184.981C245.6 183.937 254.471 182.023 263.047 179.403C267.323 178.09 271.531 176.593 275.642 174.928C279.745 173.249 283.797 171.45 287.734 169.42C289.707 168.411 291.655 167.361 293.587 166.283C295.519 165.205 297.419 164.071 299.301 162.872C301.19 161.688 303.056 160.462 304.909 159.15C305.831 158.487 306.768 157.815 307.702 157.108C308.173 156.762 308.65 156.393 309.141 156.016L310.86 154.632L286.638 124.404L286.61 124.42Z" fill="#8C2703"/>
<path d="M190.62 167.42C190.967 167.892 191.635 168.047 192.174 167.754C200.323 163.329 207.824 155.94 208.131 155.633C208.61 155.17 208.606 154.388 208.143 153.91C207.68 153.431 206.899 153.435 206.421 153.897C206.353 153.974 198.844 161.349 190.997 165.618C190.416 165.935 190.193 166.679 190.51 167.261C190.542 167.317 190.566 167.359 190.598 167.414L190.62 167.42Z" fill="#180900"/>
<path d="M202.175 167.183C202.316 167.362 202.491 167.504 202.705 167.585C203.327 167.823 204.025 167.513 204.277 166.883C204.415 166.542 207.49 158.464 207.938 155.557C208.043 154.9 207.594 154.283 206.928 154.164C206.271 154.058 205.654 154.508 205.535 155.173C205.108 157.825 202.035 165.94 201.989 166.022C201.833 166.429 201.909 166.851 202.153 167.177L202.175 167.183Z" fill="#180900"/>
<path d="M177.343 86.6418C177.5 86.8494 177.755 87.0005 178.038 87.0053C188.785 87.1778 208.428 91.0343 208.619 91.0735C209.102 91.1675 209.589 90.8489 209.697 90.3577C209.805 89.8664 209.487 89.3791 209.003 89.2851C208.813 89.2459 189.009 85.37 178.102 85.1782C177.595 85.1724 177.178 85.5809 177.164 86.0737C177.155 86.2841 177.218 86.4901 177.343 86.6418Z" fill="#180900"/>
<path d="M268.966 134.305C265.784 143.962 271.065 167.443 265.946 208.736C265.574 211.772 265.138 214.905 264.638 218.151C264.169 221.187 263.653 224.336 263.071 227.582C262.522 230.602 261.925 233.718 261.279 236.9C260.697 239.694 260.084 242.568 259.405 245.491C258.711 248.511 257.984 251.579 257.193 254.728C256.967 255.617 256.725 256.586 256.466 257.587C256.402 257.845 256.337 258.087 256.273 258.346C256.208 258.572 256.159 258.798 256.095 259.04C256.046 259.218 256.014 259.396 255.966 259.557L255.869 259.945C255.804 260.171 255.756 260.413 255.691 260.639C255.691 260.687 255.675 260.736 255.659 260.768C255.594 261.043 255.514 261.333 255.433 261.624C255.433 261.673 255.417 261.705 255.4 261.753C255.336 261.996 255.271 262.254 255.207 262.496C254.9 263.659 254.577 264.886 254.254 266.146C254.173 266.453 254.092 266.776 253.996 267.099C253.882 267.519 253.769 267.955 253.656 268.391C253.43 269.246 253.188 270.102 252.962 270.991C252.849 271.427 252.72 271.879 252.607 272.315C252.348 273.268 252.09 274.22 251.815 275.205C251.767 275.383 251.719 275.561 251.67 275.738C251.04 278.064 250.362 280.454 249.684 282.909C249.377 284.007 249.054 285.137 248.747 286.251C248.359 287.608 247.972 288.981 247.584 290.353C247.003 292.372 246.422 294.391 245.824 296.409L245.065 298.977C244.839 299.752 244.597 300.527 244.371 301.302C244.096 302.223 243.822 303.16 243.547 304.08C243.369 304.694 243.176 305.307 242.982 305.921C242.869 306.309 242.756 306.68 242.643 307.068C242.417 307.827 242.174 308.586 241.948 309.345C241.722 310.104 241.48 310.847 241.254 311.589C241.092 312.122 240.931 312.639 240.769 313.156C240.624 313.624 240.479 314.076 240.333 314.529C240.285 314.658 240.253 314.771 240.22 314.9C240.14 315.158 240.059 315.433 239.962 315.691C239.784 316.224 239.623 316.773 239.445 317.29C239.251 317.904 239.041 318.534 238.848 319.147C237.249 324.056 235.682 328.627 234.213 332.583C245.13 345.131 263.669 356.096 285.47 362.669L297.566 354.804L307.691 367.643C328.992 370.76 351.811 369.532 372.837 361.878C379.781 347.683 391.23 295.602 394.476 280.034C395.122 276.933 395.704 273.817 396.237 270.7C398.821 255.697 400.193 240.469 401.114 224.465C401.162 223.593 401.211 222.721 401.259 221.849C401.259 221.752 401.259 221.639 401.275 221.542C402.26 208.058 419.879 168.331 418.103 154.039C414.582 125.713 396.527 133.174 380.249 128.798C374.904 127.361 370.414 125.552 366.732 123.695C365.198 122.92 363.809 122.144 362.55 121.385C362.017 121.079 361.532 120.772 361.064 120.449C356.009 117.17 353.248 114.409 353.248 114.409L316.315 110.549C312.665 114.845 308.353 117.348 303.815 118.963C303.315 119.141 302.814 119.302 302.297 119.464C301.538 119.706 300.779 119.916 300.02 120.11C286.972 123.501 273.165 121.644 268.982 134.305H268.966Z" fill="#8C2703"/>
<path d="M361.662 333.132C362.066 333.132 362.453 332.874 362.615 332.47C382.817 278.225 393.282 184.561 393.379 183.624C393.443 183.075 393.04 182.574 392.491 182.51C391.941 182.445 391.441 182.849 391.376 183.398C391.279 184.335 380.847 277.757 360.725 331.76C360.532 332.276 360.79 332.858 361.323 333.068C361.436 333.116 361.565 333.132 361.678 333.132H361.662Z" fill="#180900"/>
<path d="M325.939 133.336C325.552 134.514 326.957 136.032 329.088 136.727C331.22 137.421 333.255 137.05 333.642 135.871C334.03 134.692 332.625 133.174 330.493 132.48C328.362 131.785 326.327 132.157 325.939 133.336Z" fill="#180900"/>
<path d="M309.435 129.137C309.048 130.316 310.453 131.834 312.584 132.528C314.716 133.223 316.751 132.851 317.138 131.672C317.526 130.493 316.121 128.975 313.989 128.281C311.858 127.587 309.823 127.958 309.435 129.137Z" fill="#180900"/>
<path d="M304.768 137.954C305.221 137.954 305.624 137.647 305.753 137.195C305.899 136.662 305.56 136.097 305.027 135.968C290.783 132.318 289.895 123.743 289.863 123.388C289.814 122.839 289.33 122.419 288.781 122.467C288.232 122.516 287.812 123 287.86 123.549C287.893 123.969 288.813 133.901 304.542 137.938C304.623 137.954 304.704 137.97 304.801 137.97L304.768 137.954Z" fill="#180900"/>
<path d="M282.886 227.259C301.877 227.259 318.333 222.382 329.347 217.957C343.074 212.45 351.6 206.41 351.681 206.346C352.133 206.023 352.246 205.393 351.923 204.941C351.6 204.488 350.971 204.375 350.518 204.698C350.438 204.763 342.072 210.69 328.556 216.1C316.105 221.09 296.58 226.677 274.359 224.885C273.794 224.836 273.31 225.256 273.277 225.805C273.229 226.354 273.649 226.855 274.198 226.887C277.153 227.129 280.06 227.226 282.902 227.226L282.886 227.259Z" fill="#180900"/>
<path d="M340.377 262.997C340.377 262.997 294.998 251.434 266.721 251.095L258.081 288.512C258.081 288.512 302.895 296.054 331.253 300.995L340.377 262.997Z" fill="#180900"/>
<path d="M365.828 146.723C374.565 146.723 381.25 144.285 385.804 141.766C393.055 137.761 396.592 132.835 396.737 132.625C397.06 132.173 396.947 131.543 396.495 131.22C396.043 130.897 395.413 131.01 395.09 131.463C395.09 131.463 391.634 136.275 384.755 140.038C378.408 143.51 367.734 146.837 352.876 142.945C352.343 142.799 351.778 143.122 351.649 143.671C351.504 144.204 351.827 144.769 352.376 144.899C357.301 146.191 361.807 146.707 365.844 146.707L365.828 146.723Z" fill="#180900"/>
<path d="M249.635 282.908C250.313 280.454 250.991 278.064 251.621 275.738C250.975 278.064 250.313 280.454 249.635 282.908Z" fill="#28100C"/>
<path d="M252.93 270.991C253.172 270.102 253.398 269.247 253.624 268.391C253.398 269.247 253.156 270.102 252.93 270.991Z" fill="#28100C"/>
<path d="M262.91 222.608C262.91 222.608 263.056 222.656 263.136 222.656C263.798 222.737 264.412 222.269 264.493 221.607C266.705 204.715 269.144 184.641 269.37 178.973C269.402 178.311 268.885 177.746 268.207 177.713C267.545 177.681 266.98 178.198 266.948 178.876C266.721 184.464 264.283 204.44 262.087 221.3C262.006 221.881 262.361 222.43 262.91 222.608Z" fill="#180900"/>
<path d="M307.077 34.019C307.077 34.019 295.369 43.224 303.056 57.2576C303.056 57.2576 307.271 40.8663 307.077 34.019Z" fill="#28100C"/>
<path d="M353.959 97.3394C353.959 97.3394 361.549 104.72 363.115 99.2773C364.682 93.835 362.033 91.122 362.033 91.122C362.033 91.122 370.237 99.0028 370.366 93.0599C370.495 87.1332 366.216 81.8201 366.216 81.8201C366.216 81.8201 373.822 76.2487 371.335 67.3344C368.848 58.4201 368.541 51.8959 371.028 44.5965C373.515 37.2971 372.385 29.7554 368.783 26.4933C363.519 21.7132 355.864 22.4561 355.864 22.4561C355.864 22.4561 351.795 9.11691 336.55 9.47219C321.305 9.82747 312.423 -2.07441 304.736 1.02621C297.049 4.12684 288.232 29.5294 308.919 37.0548C308.919 37.0548 349.905 64.5406 353.959 97.3394Z" fill="#28100C"/>
<path d="M315.249 104.59L314.248 114.231C315.282 115.265 316.331 116.169 317.413 116.977C333.094 128.765 352.441 118.22 352.441 118.22L355.929 84.8237L320.11 102.249L315.265 104.606L315.249 104.59Z" fill="#F79A86"/>
<path d="M315.346 103.75L314.248 114.231C315.282 115.265 316.331 116.169 317.413 116.976C332.238 112.826 344.172 98.9702 344.172 98.9702L320.11 102.248L315.346 103.766V103.75Z" fill="#28100C"/>
<path d="M307.675 60.6327C307.675 60.6327 302.879 53.5917 299.116 59.7445C295.354 65.8973 296.355 79.2204 304.914 77.9446L307.692 60.6327H307.675Z" fill="#F3796B"/>
<path d="M299.472 82.692C299.472 82.692 297.356 102.604 318.092 104.719C338.682 106.835 354.411 92.1231 355.219 91.461H355.251L355.913 87.2784L359.353 65.6709L361.194 54.1243C361.194 54.1243 366.006 33.4858 346.53 27.5913C332.303 23.2795 318.431 24.2808 310.776 31.128C310.534 31.3541 310.292 31.5802 310.066 31.8063C307.627 34.2448 305.915 37.3454 305.14 41.1404L302.314 61.9243L301.62 67.0274L299.488 82.6759L299.472 82.692Z" fill="#F79A86"/>
<path d="M359.336 65.6871C359.336 65.6871 354.669 67.1405 352.618 72.8089C349.534 72.4859 347.386 69.6113 347.951 66.5592C348.274 64.7828 348.694 62.6672 349.178 60.2772C350.664 53.1231 352.941 50.8622 348.791 46.3728C344.64 41.8834 348.549 39.2188 344.77 36.0535C340.619 32.5815 330.381 38.7343 322.839 37.1678C313.893 35.3107 314.652 29.2386 306.852 36.1989C306.852 36.1989 308.919 25.7181 319.093 22.892C329.267 20.0498 357.85 22.5529 362.227 36.1666C366.603 49.7803 359.336 65.6871 359.336 65.6871Z" fill="#28100C"/>
<path d="M342.945 50.6522C341.573 53.01 338.569 53.8336 336.179 52.4932C334.79 51.7181 333.143 50.9268 331.366 50.3454C328.863 49.5218 327.539 46.7764 328.508 44.3218C328.508 44.3218 338.843 44.451 342.945 50.6684V50.6522Z" fill="#28100C"/>
<path d="M304.623 46.3565C305.431 48.795 308.047 50.1354 310.501 49.3764C311.939 48.9242 313.618 48.5205 315.346 48.3267C317.817 48.0522 319.561 45.7751 319.157 43.3205C319.157 43.3205 309.597 41.431 304.623 46.3565Z" fill="#28100C"/>
<path d="M329.04 67.3503C328.895 68.8037 331.753 70.2894 335.435 70.677C339.117 71.0646 342.234 70.1926 342.38 68.7553C342.525 67.3019 339.667 65.8162 335.985 65.4286C332.303 65.041 329.186 65.913 329.04 67.3503Z" fill="#F3796B"/>
<path d="M301.587 67.0596C302.104 67.1727 302.637 67.2534 303.186 67.3019C306.868 67.6895 309.984 66.8174 310.13 65.364C310.275 63.9106 307.417 62.4249 303.735 62.0373C303.234 61.9888 302.75 61.9565 302.281 61.9565L301.587 67.0596Z" fill="#F3796B"/>
<path d="M328.653 59.2439C328.443 61.2303 329.186 62.9421 330.3 63.0551C331.414 63.1681 332.48 61.6501 332.69 59.6638C332.9 57.6775 332.157 55.9656 331.043 55.8526C329.928 55.7396 328.863 57.2576 328.653 59.2439Z" fill="#28100C"/>
<path d="M308.644 57.1443C308.434 59.1306 309.177 60.8424 310.291 60.9555C311.405 61.0685 312.471 59.5505 312.681 57.5642C312.891 55.5778 312.148 53.866 311.034 53.753C309.92 53.64 308.854 55.158 308.644 57.1443Z" fill="#28100C"/>
<path d="M315.152 77.7346C322.435 78.4936 329.04 72.8737 329.137 72.793C329.476 72.5023 329.525 71.9694 329.218 71.6302C328.927 71.2911 328.394 71.2427 328.055 71.5495C327.619 71.9209 317.381 80.6091 309.048 73.2451C308.709 72.9383 308.192 72.9706 307.885 73.3097C307.578 73.6489 307.611 74.1656 307.95 74.4725C310.275 76.5396 312.746 77.4762 315.152 77.7346Z" fill="#28100C"/>
<path d="M349.566 82.7085C349.631 82.9346 351.617 89.2974 355.202 91.4613H355.218L355.88 87.2787C355.88 87.2787 352.667 86.3744 349.55 82.6924L349.566 82.7085Z" fill="#28100C"/>
<path d="M354.653 69.2559C354.653 69.2559 363.729 59.3888 368.686 68.4C372.772 75.8286 361.791 92.9305 352.925 85.7441L354.653 69.2397V69.2559Z" fill="#F79A86"/>
<path d="M354.363 82.66C354.782 82.7085 355.17 82.434 355.251 82.0141C356.979 74.0041 364.052 71.9047 364.359 71.8079C364.795 71.6787 365.053 71.2265 364.924 70.7905C364.795 70.3544 364.343 70.096 363.907 70.2252C363.568 70.3221 355.59 72.6638 353.636 81.6588C353.539 82.111 353.83 82.547 354.266 82.6439C354.298 82.6439 354.33 82.6439 354.363 82.6439V82.66Z" fill="#28100C"/>
<path d="M362.518 78.4935C362.76 78.5258 363.002 78.4451 363.18 78.2513C363.503 77.9283 363.503 77.4115 363.18 77.0885C362.873 76.7817 360.176 74.1656 357.657 74.537C357.205 74.6016 356.898 75.0215 356.963 75.4736C357.027 75.9258 357.447 76.2326 357.899 76.1681C359.353 75.9581 361.355 77.6053 362.017 78.2513C362.163 78.3966 362.34 78.4612 362.518 78.4935Z" fill="#28100C"/>
<path d="M319.464 68.4161C319.917 68.4646 320.32 68.1416 320.369 67.6894C320.417 67.2373 320.094 66.8335 319.642 66.7851C316.622 66.4621 315.379 64.7342 314.991 63.9913C318.964 57.5963 322.92 51.1528 322.969 51.072C323.211 50.6844 323.082 50.1838 322.694 49.9416C322.307 49.6993 321.806 49.8285 321.564 50.2161C321.515 50.2807 317.414 56.9826 313.36 63.4907C313.231 63.7006 313.199 63.959 313.279 64.2012C313.328 64.3466 314.62 67.9155 319.464 68.4161Z" fill="#28100C"/>
<g opacity="0.5">
<path d="M319.076 61.8922C318.915 64.6699 323.404 67.1891 329.137 67.5444C334.854 67.8997 339.634 65.9295 339.796 63.1518C339.957 60.3742 335.468 57.8549 329.735 57.4997C324.018 57.1605 319.238 59.1146 319.076 61.8922Z" fill="white"/>
</g>
<g opacity="0.5">
<path d="M292.576 60.778C292.414 63.5556 296.903 66.0749 302.636 66.4301C308.353 66.7854 313.133 64.8152 313.295 62.0376C313.456 59.2599 308.967 56.7407 303.234 56.3854C297.517 56.0463 292.737 58.0003 292.576 60.778Z" fill="white"/>
</g>
<path d="M313.246 62.0055C313.392 62.0055 313.537 61.957 313.65 61.8601C315.83 59.9545 318.705 61.8278 318.818 61.9086C319.092 62.0862 319.48 62.0216 319.657 61.7471C319.835 61.4725 319.77 61.1011 319.496 60.9073C318.204 60.0353 315.152 58.9371 312.859 60.9558C312.6 61.1818 312.584 61.5533 312.794 61.8117C312.907 61.957 313.085 62.0216 313.246 62.0216V62.0055Z" fill="#28100C"/>
<path d="M361.694 64.7989C361.871 64.7989 362.049 64.7182 362.178 64.5567C362.388 64.2983 362.34 63.9107 362.065 63.7008C352.925 56.6113 340.054 61.7306 339.521 61.9405C339.214 62.0697 339.069 62.425 339.182 62.7318C339.311 63.0386 339.666 63.184 339.973 63.071C340.102 63.0225 352.731 58.0001 361.322 64.6697C361.435 64.7505 361.564 64.7989 361.694 64.7989Z" fill="#28100C"/>
<path d="M378.731 345.066C378.731 345.066 375.872 428.412 275.28 395.226C221.552 377.494 197.716 363.88 197.716 363.88C197.716 363.88 180.775 410.906 171.667 430.091C162.559 449.277 137.253 496.238 137.253 496.238L93.8447 485.547C93.8447 485.547 144.391 309.619 175.608 302.174C206.824 294.73 244.273 306.567 310.323 321.553C310.323 321.553 368.008 330.387 378.715 345.066H378.731Z" fill="white"/>
<path d="M136.026 480.444C136.543 480.622 137.14 480.412 137.431 479.927C151.448 457.254 165.369 422.905 176.544 395.306C181.243 383.695 185.313 373.65 188.704 366.157C193.29 355.999 195.164 353.981 195.874 353.674C198.991 352.333 209.23 356.968 222.181 362.814C240.946 371.292 269.288 384.115 302.265 390.962C319.173 394.466 333.836 392.173 345.802 384.131C367.119 369.823 372.384 342.709 372.594 341.562C372.723 340.9 372.287 340.27 371.625 340.157C370.963 340.028 370.333 340.464 370.204 341.126C370.155 341.4 364.891 368.418 344.43 382.145C333.012 389.799 318.995 391.963 302.749 388.604C270.047 381.822 241.835 369.064 223.166 360.618C208.099 353.803 199.007 349.701 194.905 351.461C191.175 353.06 185.264 367.287 174.283 394.402C163.14 421.904 149.268 456.156 135.347 478.652C134.992 479.217 135.17 479.976 135.735 480.315C135.816 480.363 135.897 480.412 135.993 480.428L136.026 480.444Z" fill="#D8D8D8"/>
<path d="M99.093 472.079C99.093 472.079 99.1414 472.079 99.1576 472.095L143.035 483.69C143.681 483.868 144.343 483.48 144.52 482.834C144.698 482.188 144.31 481.51 143.664 481.349L99.7874 469.754C99.1414 469.576 98.4793 469.964 98.3017 470.609C98.1402 471.239 98.4955 471.869 99.093 472.063V472.079Z" fill="#D8D8D8"/>
<path d="M148.107 295.748L146.548 312.275C146.524 312.533 146.713 312.761 146.97 312.786L280.029 325.34C280.287 325.364 280.515 325.175 280.539 324.918L282.099 308.39C282.123 308.132 281.934 307.904 281.677 307.88L148.618 295.325C148.36 295.301 148.132 295.49 148.107 295.748Z" fill="#28100C"/>
<path d="M132.49 311.412C127.451 310.944 123.349 307.132 122.51 302.142L106.296 205.926C105.311 200.048 110.155 194.832 116.098 195.381L176.092 201.033C180.146 201.42 183.44 204.44 184.167 208.445L204.111 318.162L132.49 311.412Z" fill="#28100C"/>
<path d="M166.791 291.597L166.08 286.429L170.15 286.736L168.922 281.972L174.316 282.392L175.543 287.156L178.87 287.414L177.643 282.65L183.037 283.07L184.264 287.834L188.98 288.19L189.69 293.357L185.62 293.05L186.719 297.427L191.434 297.782L192.145 302.95L188.075 302.643L189.303 307.407L183.909 306.987L182.681 302.223L179.355 301.965L180.582 306.729L175.188 306.309L173.961 301.545L169.245 301.19L168.535 296.022L172.604 296.329L171.506 291.952L166.791 291.597ZM177.998 296.749L181.325 297.007L180.227 292.631L176.9 292.372L177.998 296.749Z" fill="#180900"/>
<path d="M113.692 221.768C115.097 228.05 120.798 233.541 126.434 234.042C132.07 234.542 135.493 229.843 134.088 223.561C132.683 217.279 126.983 211.788 121.347 211.288C115.711 210.787 112.287 215.486 113.692 221.768Z" fill="#FBB416"/>
<path d="M125.094 220.638C125.368 221.898 125.998 222.947 126.483 222.996C126.967 223.044 127.145 222.059 126.854 220.799C126.579 219.54 125.95 218.49 125.465 218.442C124.981 218.393 124.803 219.378 125.094 220.638Z" fill="#28100C"/>
<path d="M119.765 220.17C120.039 221.429 120.669 222.479 121.153 222.527C121.638 222.576 121.816 221.591 121.525 220.331C121.25 219.072 120.621 218.022 120.136 217.973C119.652 217.925 119.474 218.91 119.765 220.17Z" fill="#28100C"/>
<path d="M125.045 228.195C129.438 228.583 129.341 223.771 129.341 223.722C129.341 223.464 129.115 223.189 128.872 223.108C128.614 223.028 128.42 223.173 128.436 223.448C128.436 223.625 128.485 227.533 124.835 227.21C121.169 226.887 119.441 222.818 119.377 222.656C119.264 222.382 118.989 222.188 118.763 222.236C118.537 222.269 118.44 222.527 118.553 222.802C118.569 222.85 120.669 227.824 125.061 228.212L125.045 228.195Z" fill="#28100C"/>
<path d="M184.166 208.461L203.949 317.274L210.812 317.92L191.03 209.107C190.303 205.102 187.009 202.066 182.955 201.695L176.092 201.049C180.145 201.436 183.44 204.456 184.166 208.461Z" fill="#28100C"/>
<path d="M203.335 316.547C203.335 316.547 203.448 316.547 203.513 316.531C204.062 316.434 204.433 315.901 204.32 315.352L184.763 206.782C184.667 206.233 184.134 205.861 183.585 205.958C183.036 206.055 182.664 206.588 182.777 207.137L202.334 315.708C202.414 316.192 202.85 316.547 203.335 316.547Z" fill="#5A4C54"/>
<path d="M162.349 258.524C163.157 264.547 159.039 268.972 153.144 268.423C147.25 267.874 141.824 262.529 141.016 256.505C140.209 250.481 144.327 246.057 150.221 246.606C156.116 247.155 161.542 252.5 162.349 258.507V258.524Z" fill="white"/>
<path d="M300.876 258.427C301.296 258.427 301.699 258.152 301.829 257.732C313.553 222.737 330.493 135.564 330.655 134.676C330.768 134.127 330.396 133.594 329.847 133.497C329.298 133.384 328.765 133.756 328.668 134.305C328.507 135.177 311.599 222.22 299.907 257.103C299.729 257.635 300.02 258.201 300.537 258.378C300.65 258.411 300.747 258.427 300.86 258.427H300.876Z" fill="white"/>
<path d="M275.813 255.1C276.313 255.1 276.749 254.729 276.814 254.228C283.952 202.131 313.747 132.012 314.054 131.301C314.28 130.784 314.038 130.187 313.521 129.977C313.004 129.751 312.406 129.993 312.197 130.51C311.89 131.22 281.982 201.582 274.811 253.953C274.731 254.503 275.118 255.019 275.683 255.1C275.732 255.1 275.78 255.1 275.829 255.1H275.813Z" fill="white"/>
<path d="M347.805 390.995C349.953 390.995 352.262 390.252 354.62 388.782C363.212 383.404 373.612 367.094 377.471 342.806C377.552 342.257 377.181 341.74 376.631 341.643C376.082 341.546 375.566 341.934 375.469 342.483C371.706 366.157 361.742 381.935 353.538 387.07C350.744 388.814 348.096 389.38 345.884 388.701C344.107 388.152 342.718 386.941 341.685 384.971C334.531 371.486 346.966 330.871 347.095 330.468C347.256 329.935 346.966 329.37 346.433 329.208C345.9 329.047 345.335 329.337 345.173 329.87C344.64 331.566 332.367 371.713 339.908 385.924C341.2 388.362 343.025 389.945 345.318 390.639C346.126 390.882 346.966 391.011 347.821 391.011L347.805 390.995Z" fill="white"/>
<path d="M403.861 273.512C402.139 272.066 398.3 272.819 395.361 272.311C391.503 271.648 385.5 271.847 382.147 272.837C377.119 274.333 362.524 279.571 360.629 283.488C358.722 287.417 371.653 283.872 374.318 283.211C376.995 282.539 379.044 283.072 379.044 283.072C379.044 283.072 350.024 293.487 348.864 296.766C347.704 300.045 364.817 295.783 369.035 294.699C369.035 294.699 347.596 303.761 347.516 306.082C347.355 310.725 371.459 301.357 371.459 301.357C371.459 301.357 353.82 309.895 355.297 312.753C356.872 315.792 375.748 306.577 375.748 306.577C375.748 306.577 365.051 313.826 365.209 316.883C365.368 319.94 388.984 306.451 392.372 303.941C395.76 301.431 405.43 295.412 409.232 291.427C411.826 288.723 409.319 278.081 403.839 273.513L403.861 273.512Z" fill="#F79A86"/>
<path d="M383.245 305.523C382.934 305.829 382.444 305.855 382.104 305.579C374.033 299.145 373.573 288.945 373.549 288.524C373.535 288.044 373.912 287.645 374.391 287.631C374.87 287.616 375.27 287.993 375.284 288.473C375.284 288.473 375.757 298.329 383.185 304.245C383.548 304.543 383.621 305.078 383.323 305.464C383.301 305.487 383.268 305.522 383.246 305.546L383.245 305.523Z" fill="#F3796B"/>
<path d="M398.718 290.148C398.485 290.395 398.099 290.475 397.763 290.313C388.319 286.158 382.333 291.612 382.266 291.66C381.921 291.978 381.373 291.972 381.042 291.616C380.724 291.271 380.742 290.734 381.075 290.404C381.353 290.133 387.973 284.101 398.47 288.716C398.91 288.909 399.096 289.417 398.904 289.857C398.85 289.961 398.784 290.055 398.717 290.125L398.718 290.148Z" fill="#F3796B"/>
<path d="M388.484 177.51L388.415 177.49L388.462 177.534L388.659 177.631L389.1 177.869L390.075 178.389C390.748 178.758 391.456 179.137 392.165 179.539C393.582 180.342 395.012 181.18 396.443 182.063C399.294 183.841 402.148 185.711 404.903 187.709C406.281 188.72 407.659 189.73 409.014 190.764C410.359 191.81 411.692 192.868 413.004 193.971C414.315 195.053 415.594 196.192 416.861 197.32C418.128 198.448 419.373 199.599 420.584 200.786C430.343 210.209 438.532 221.016 444.583 232.936C444.97 233.679 445.335 234.422 445.7 235.188C446.077 235.942 446.407 236.698 446.761 237.453L447.018 238.028C446.908 237.791 446.82 237.531 446.709 237.249C446.521 236.695 446.332 236.072 446.222 235.435C446.1 234.788 446.024 234.139 446.017 233.511C445.998 232.894 446.027 232.3 446.069 231.784C446.175 230.753 446.404 229.992 446.563 229.565C446.721 229.115 446.853 228.928 446.864 228.916C446.909 228.892 446.583 229.473 445.988 230.199C445.392 230.924 444.573 231.817 443.607 232.77C442.641 233.724 441.539 234.705 440.346 235.688C437.971 237.689 435.254 239.699 432.422 241.69C426.713 245.651 420.462 249.479 414.07 253.174C410.88 255.027 407.621 256.836 404.337 258.624C402.707 259.528 401.065 260.399 399.423 261.27L394.665 263.798L407.391 298.77L408.997 298.22L410.49 297.696L413.417 296.639C415.349 295.908 417.27 295.166 419.201 294.412C423.028 292.872 426.819 291.253 430.619 289.53C438.194 286.063 445.701 282.244 453.254 277.623C457.025 275.319 460.8 272.798 464.644 269.874C466.566 268.401 468.496 266.825 470.443 265.066C472.403 263.317 474.379 261.363 476.401 259.053C478.412 256.732 480.493 254.055 482.49 250.5C483.478 248.723 484.446 246.684 485.29 244.306C486.124 241.962 486.83 239.188 487.14 236.129C487.301 234.593 487.356 232.981 487.297 231.349C487.226 229.706 487.051 228.032 486.728 226.396C486.406 224.761 485.97 223.151 485.435 221.648C485.173 220.89 484.866 220.156 484.571 219.457L484.204 218.645C483.716 217.563 483.239 216.491 482.739 215.421C482.239 214.35 481.728 213.291 481.194 212.233C480.149 210.116 479.038 208.047 477.892 205.99C476.724 203.957 475.533 201.924 474.287 199.95C473.052 197.964 471.75 196.026 470.425 194.111C469.09 192.209 467.721 190.318 466.308 188.498C460.677 181.146 454.39 174.442 447.667 168.391C444.31 165.359 440.833 162.503 437.248 159.832C433.662 157.161 430.011 154.607 426.229 152.262C424.344 151.083 422.437 149.951 420.497 148.855C418.557 147.758 416.607 146.696 414.601 145.715C412.596 144.712 410.579 143.743 408.485 142.833C407.432 142.373 406.379 141.935 405.281 141.499C404.726 141.287 404.183 141.063 403.594 140.841L401.515 140.079L388.45 177.523L388.484 177.51Z" fill="#8C2703"/>
<path d="M473.576 249.197C473.788 248.643 473.575 247.998 473.052 247.705C465.011 243.097 454.782 240.599 454.356 240.486C453.7 240.334 453.049 240.719 452.897 241.374C452.745 242.03 453.129 242.681 453.785 242.833C453.889 242.864 464.107 245.374 471.857 249.796C472.438 250.122 473.175 249.929 473.511 249.336C473.556 249.289 473.565 249.232 473.587 249.186L473.576 249.197Z" fill="#180900"/>
<path d="M467.315 239.477C467.401 239.268 467.417 239.04 467.375 238.801C467.242 238.142 466.612 237.704 465.953 237.837C465.601 237.905 457.093 239.537 454.384 240.668C453.763 240.926 453.476 241.631 453.734 242.252C453.992 242.873 454.697 243.16 455.318 242.902C457.801 241.87 466.321 240.226 466.412 240.223C466.844 240.142 467.166 239.847 467.315 239.477Z" fill="#180900"/>
<path d="M416.065 294.608C416.172 294.353 416.152 294.068 415.996 293.81C410.498 284.387 403.459 265.276 403.396 265.083C403.222 264.609 402.701 264.361 402.204 264.536C401.729 264.71 401.481 265.231 401.655 265.706C401.718 265.898 408.819 285.156 414.401 294.725C414.654 295.163 415.218 295.318 415.667 295.054C415.858 294.945 415.99 294.781 416.054 294.597L416.065 294.608Z" fill="#180900"/>
<path d="M403.697 520.075C403.956 521.205 404.263 522.319 404.618 523.401C406.992 530.685 411.352 536.498 417.279 538.904C439.726 548.013 460.833 544.864 503.79 543.862C546.73 542.861 578.624 531.492 574.652 496.126C574.329 493.332 573.796 490.732 573.069 488.293C572.116 485.096 570.824 482.205 569.29 479.589C567.498 476.504 565.366 473.791 563.041 471.434C550.993 459.193 532.842 455.188 516.58 460.759C500.527 466.266 472.153 468.93 442.617 469.512C410.884 470.158 399.014 499.808 403.697 520.042V520.075Z" fill="#FBB416"/>
<path d="M403.697 520.075C403.956 521.205 404.262 522.319 404.618 523.401C412.224 530.039 426.564 534.237 447.348 535.885C453.872 536.418 461.059 536.66 468.778 536.66C486.655 536.66 507.488 535.271 530.242 532.542C549.491 530.232 562.507 523.45 568.951 512.388C573.747 504.152 573.989 495.157 573.069 488.309C572.116 485.112 570.824 482.221 569.29 479.605C570.953 484.724 574.619 499.258 567.465 511.548C561.312 522.126 548.716 528.617 530.032 530.862C462.528 538.969 416.584 535.029 403.697 520.075Z" fill="#F8A81B"/>
<path d="M532.034 476.327C545.228 477.393 554.982 489.424 552.818 502.488C552.77 502.747 552.737 502.989 552.673 503.247C549.83 517.475 530.694 517.055 477.563 517.555C435.947 517.943 414.549 503.053 425.628 484.66C434.429 470.029 503.935 474.066 532.034 476.327Z" fill="#F8A81B"/>
<path d="M431.667 487.098C451.03 511.209 529.999 512.565 540.367 494.51C545.421 485.725 544.016 474.453 541.271 465.216C540.98 464.247 540.674 463.294 540.367 462.374C537.525 454.057 533.956 447.985 533.956 447.985C533.956 447.985 534.279 456.576 505.146 453.492C501.819 453.136 498.024 452.991 493.97 453.04C493.211 453.04 492.452 453.056 491.677 453.088C460.267 454.025 414.953 466.282 431.683 487.114L431.667 487.098Z" fill="white"/>
<path d="M495.117 472.725C499.671 477.812 507.6 479.734 518.017 478.264C518.259 478.232 518.485 478.2 518.711 478.168C531.84 476.149 538.235 469.899 541.255 465.216C540.964 464.247 540.658 463.294 540.351 462.374C538.122 466.686 532.244 474.033 517.694 476.068C508.053 477.425 500.802 475.745 496.764 471.24C493.131 467.17 492.162 460.888 493.938 453.023C493.179 453.023 492.42 453.04 491.645 453.072C489.853 461.437 491.048 468.204 495.101 472.725H495.117Z" fill="#FBAB47"/>
<path d="M442.617 469.544C442.617 469.544 424.078 468.171 421.881 458.821C419.685 449.471 462.222 457.674 466.905 438.392C471.604 419.126 452.791 403.752 446.686 409.389C439.451 416.074 455.294 418.916 456.15 428.832C456.86 437.068 451.757 444.658 435.915 445.789C420.073 446.919 412.999 449.374 413.064 456.738C413.145 464.748 425.967 473.016 433.767 473.533C441.567 474.049 442.617 469.544 442.617 469.544Z" fill="white"/>
<path d="M523.96 440.879C523.96 440.879 529.466 433.725 538.413 428.961C539.721 428.267 541.271 429.317 541.11 430.786L539.414 447.194C539.414 447.194 526.56 448.292 523.943 440.896L523.96 440.879Z" fill="white"/>
<path d="M536.281 445.207C537.008 441.493 537.185 437.585 538.041 433.192C538.041 433.192 528.368 438.958 527.803 442.123C527.803 442.123 533.132 446.16 536.281 445.207Z" fill="#5A4C54"/>
<path d="M507.181 441.542C507.181 441.542 499.623 436.988 489.724 435.744C488.109 435.534 486.914 437.246 487.64 438.716L494.407 452.216C494.407 452.216 507.439 449.39 507.165 441.542H507.181Z" fill="white"/>
<path d="M497.282 450.052C495.247 446.855 493.664 443.27 491.274 439.507C491.274 439.507 502.369 441.364 504.064 444.109C504.064 444.109 500.56 449.81 497.282 450.068V450.052Z" fill="#5A4C54"/>
<path d="M531.146 441.17C531.146 441.17 542.596 442.914 541.74 456.334C540.884 469.754 527.819 471.175 527.819 471.175C527.819 471.175 525.494 475.487 517.419 477.231C512.252 478.345 504.565 477.99 502.611 474.195C502.611 474.195 491.403 470.093 491.532 460.097C491.678 449.019 505.017 435.421 531.146 441.17Z" fill="white"/>
<path d="M542.774 472.887C542.774 472.887 538.107 491.927 534.183 495.867C530.274 499.791 526.027 501.955 520.569 502.617C511.768 503.683 513.382 509.561 516.015 511.58C519.051 513.922 524.445 512.581 532.551 512.581C539.544 512.581 546.133 511.192 548.507 506.59C550.865 501.987 550.719 488.39 548.2 480.735C546.65 476.02 544.469 473.549 542.79 472.903L542.774 472.887Z" fill="white"/>
<path d="M483.619 474.146C483.619 474.146 488.286 493.186 492.21 497.127C496.118 501.051 500.398 503.005 505.824 503.877C512.461 504.927 511.848 511.193 510.378 512.84C507.81 515.698 501.948 513.841 493.841 513.841C486.849 513.841 478.58 511.047 476.206 506.445C473.849 501.842 475.674 489.65 478.193 481.995C479.743 477.279 481.923 474.809 483.603 474.163L483.619 474.146Z" fill="white"/>
<path d="M444.523 470.351C444.523 470.351 432.201 467.396 428.228 476.682C421.978 491.281 426.969 499.63 443.618 501.955C460.268 504.281 479.179 507.43 464.887 495.576C450.579 483.739 444.523 470.351 444.523 470.351Z" fill="white"/>
<path d="M510.831 462.842C510.831 462.842 515.805 462.309 517.129 462.923C519.358 463.94 515.773 468.091 513.496 468.446C511.219 468.801 509.006 466.136 509.038 464.392C509.071 462.664 510.831 462.842 510.831 462.842Z" fill="#5A4C54"/>
<path d="M508.279 459.015C508.521 458.869 508.78 459.176 508.602 459.386C507.617 460.565 505.792 462.115 503.321 461.598C501.286 461.162 500.511 459.741 500.237 458.498C500.172 458.223 500.56 458.062 500.689 458.32C501.222 459.241 502.239 460.177 504.226 460.306C505.727 460.403 507.262 459.66 508.279 459.031V459.015Z" fill="#5A4C54"/>
<path d="M527.545 457.997C527.755 457.803 528.061 458.062 527.932 458.304C527.173 459.644 525.671 461.501 523.152 461.453C521.069 461.405 520.051 460.145 519.551 458.966C519.438 458.708 519.777 458.482 519.971 458.708C520.649 459.515 521.828 460.258 523.814 460.016C525.3 459.838 526.689 458.821 527.561 458.013L527.545 457.997Z" fill="#5A4C54"/>
</svg>
